<?xml version="1.0" standalone="no"?>
<!DOCTYPE svg PUBLIC "-//W3C//DTD SVG 20010904//EN"
 "http://www.w3.org/TR/2001/REC-SVG-20010904/DTD/svg10.dtd">
<svg version="1.0" xmlns="http://www.w3.org/2000/svg"
 width="1024.000000pt" height="1024.000000pt" viewBox="0 0 1024.000000 1024.000000"
 preserveAspectRatio="xMidYMid meet">

<g transform="translate(0.000000,1024.000000) scale(0.100000,-0.100000)"
fill="#000000" stroke="none">
<path d="M2515 8344 c-70 -36 -99 -85 -93 -154 5 -47 27 -91 98 -190 50 -70
78 -145 90 -240 9 -73 5 -3340 -5 -4235 -5 -453 -12 -530 -62 -668 -35 -98
-65 -147 -152 -247 -85 -98 -101 -129 -101 -203 0 -42 6 -63 29 -99 16 -26 40
-53 53 -60 19 -11 361 -13 1890 -13 l1867 0 28 21 c40 29 67 90 108 239 20 71
45 161 57 199 20 67 59 125 102 149 15 9 183 14 641 18 604 5 622 6 695 28
138 41 224 94 335 206 147 147 219 281 219 408 1 63 -1 71 -27 92 -15 13 -44
27 -65 30 -212 34 -366 124 -429 253 l-28 57 -5 1505 c-5 1503 -5 1505 -26
1567 -42 121 -139 215 -267 260 -49 17 -132 18 -1604 18 l-1551 0 -43 -30
c-61 -43 -81 -86 -77 -161 5 -74 38 -126 102 -155 39 -18 96 -19 1487 -19
1561 0 1509 2 1566 -52 62 -58 58 42 61 -1475 l3 -1383 -1574 0 -1574 0 -34
-23 c-120 -81 -112 -256 15 -325 29 -16 152 -17 1776 -22 1720 -5 1746 -5
1785 -25 55 -28 85 -76 85 -137 0 -103 -72 -172 -205 -198 -44 -8 -551 -10
-1920 -8 -1837 3 -1860 3 -1899 23 -22 11 -49 33 -60 48 l-21 28 -5 2442 c-5
2273 -6 2444 -22 2473 -9 17 -30 40 -45 50 -27 18 -57 19 -598 22 -504 2 -573
0 -600 -14z"/>
<path d="M4585 6214 c-128 -66 -137 -231 -17 -306 l37 -23 535 -3 536 -3 44
24 c118 62 121 235 4 303 l-41 24 -534 0 c-464 0 -538 -2 -564 -16z"/>
<path d="M5060 5611 c-121 -64 -131 -224 -19 -298 l43 -28 648 -3 c421 -1 663
1 687 8 76 20 131 91 131 168 0 55 -38 122 -86 149 l-39 23 -665 0 c-629 0
-667 -1 -700 -19z"/>
<path d="M4590 5043 c-58 -22 -110 -94 -110 -153 0 -36 23 -96 48 -124 9 -10
35 -27 57 -37 37 -17 76 -19 550 -19 326 0 524 4 548 11 50 13 103 61 118 106
26 80 -15 179 -87 209 -27 11 -133 14 -571 13 -296 0 -545 -3 -553 -6z"/>
</g>
</svg>
